# File created by Blade
# Date/Time:  Tue Sep 30 19:10:28 2014
#---------------------------------------------------------
:version 1.10
:name HOM
:units
  mass 1.0
  length 1.000000
  angle deg
:documentation
     Acclaim Skeleton File
:root
   axis xyz
   order TX TY TZ RX RY RZ
   position 0.000000 0.000000 0.000000
   orientation 0 0 0
:bonedata
   begin
      id 1
      name Spine_dum
      direction 0.000000 1.000000 0.000000
      length 7.508948
      axis 0.0 0.0 0.0 xyz
   end
   begin
      id 2
      name LeftUpLeg_dum
      direction 1.000000 0.000000 0.000000
      length 3.000560
      axis 0.0 0.0 0.0 xyz
   end
   begin
      id 3
      name RightUpLeg_dum
      direction -1.000000 0.000000 0.000000
      length 3.000560
      axis 0.0 0.0 0.0 xyz
   end
   begin
      id 4
      name Spine
      direction 0.000000 1.000000 0.000000
      length 0.000000
      axis 0.0 0.0 0.0 xyz
      dof rx ry rz
   end
   begin
      id 5
      name Spine_dum1
      direction 0.000000 1.000000 0.000000
      length 13.861154
      axis 0.0 0.0 0.0 xyz
   end
   begin
      id 6
      name Spine_dum2
      direction 0.000000 1.000000 0.000000
      length 8.204781
      axis 0.0 0.0 0.0 xyz
   end
   begin
      id 7
      name Spine_dum3
      direction 0.000000 1.000000 0.000000
      length 8.204781
      axis 0.0 0.0 0.0 xyz
   end
   begin
      id 8
      name Head
      direction 0.000000 1.000000 0.000000
      length 4.527550
      axis 0.0 0.0 0.0 xyz
      dof rx ry rz
   end
   begin
      id 9
      name LeftShoulder
      direction 1.000000 0.000000 0.000000
      length 6.635956
      axis 0.0 0.0 -90.0 xyz
      dof rx ry rz
   end
   begin
      id 10
      name LeftArm
      direction 1.000000 0.000000 0.000000
      length 10.274218
      axis 0.0 0.0 -90.0 xyz
      dof rx ry rz
   end
   begin
      id 11
      name LeftForeArm
      direction 1.000000 0.000000 0.000000
      length 8.522147
      axis 0.0 0.0 -90.0 xyz
      dof ry rz rx
   end
   begin
      id 12
      name LeftHand
      direction 0.000000 0.000000 0.000000
      length 0.000000
      axis 0.0 0.0 -90.0 xyz
      dof rx ry rz
   end
   begin
      id 13
      name LeftHand_dum1
      direction 0.000000 0.000000 0.000000
      length 0.000000
      axis 0.0 0.0 -90.0 xyz
   end
   begin
      id 14
      name LeftHand_dum2
      direction 1.000000 0.000000 0.000000
      length 3.937000
      axis 0.0 0.0 -90.0 xyz
   end
   begin
      id 15
      name LeftHandThumb1
      direction 0.000000 0.000000 1.000000
      length 3.937000
      axis 0.0 0.0 -90.0 xyz
      dof rx rz ry
   end
   begin
      id 16
      name RightShoulder
      direction -1.000000 0.000000 0.000000
      length 6.635956
      axis 0.0 0.0 90.0 xyz
      dof rx ry rz
   end
   begin
      id 17
      name RightArm
      direction -1.000000 0.000000 0.000000
      length 10.274218
      axis 0.0 0.0 90.0 xyz
      dof rx ry rz
   end
   begin
      id 18
      name RightForeArm
      direction -1.000000 0.000000 0.000000
      length 8.522147
      axis 0.0 0.0 90.0 xyz
      dof ry rz rx
   end
   begin
      id 19
      name RightHand
      direction 0.000000 0.000000 0.000000
      length 0.000000
      axis 0.0 0.0 90.0 xyz
      dof rx ry rz
   end
   begin
      id 20
      name RightHand_dum1
      direction 0.000000 0.000000 0.000000
      length 0.000000
      axis 0.0 0.0 90.0 xyz
   end
   begin
      id 21
      name RightHand_dum2
      direction -1.000000 0.000000 0.000000
      length 3.937000
      axis 0.0 0.0 90.0 xyz
   end
   begin
      id 22
      name RightHandThumb1
      direction 0.000000 0.000000 1.000000
      length 3.937000
      axis 0.0 0.0 90.0 xyz
      dof rx rz ry
   end
   begin
      id 23
      name LeftUpLeg
      direction 0.000000 -1.000000 0.000000
      length 16.490845
      axis 0.0 0.0 0.0 xyz
      dof rx ry rz
   end
   begin
      id 24
      name LeftLeg
      direction 0.000000 -1.000000 0.000000
      length 14.556576
      axis 0.0 0.0 0.0 xyz
      dof rx ry rz
   end
   begin
      id 25
      name LeftFoot
      direction 0.000000 -0.258819 0.965926
      length 4.831116
      axis 15.0 0.0 0.0 xyz
      dof rx ry rz
   end
   begin
      id 26
      name LeftToeBase
      direction 0.000000 0.000000 1.000000
      length 2.952750
      axis 0.0 0.0 0.0 xyz
      dof rx ry rz
   end
   begin
      id 27
      name RightUpLeg
      direction 0.000000 -1.000000 0.000000
      length 16.490845
      axis 0.0 0.0 0.0 xyz
      dof rx ry rz
   end
   begin
      id 28
      name RightLeg
      direction 0.000000 -1.000000 0.000000
      length 14.556576
      axis 0.0 0.0 0.0 xyz
      dof rx ry rz
   end
   begin
      id 29
      name RightFoot
      direction 0.000000 -0.258819 0.965926
      length 4.831116
      axis 15.0 0.0 0.0 xyz
      dof rx ry rz
   end
   begin
      id 30
      name RightToeBase
      direction 0.000000 0.000000 1.000000
      length 2.952750
      axis 0.0 0.0 0.0 xyz
      dof rx ry rz
   end
:hierarchy
   begin
      root Spine_dum LeftUpLeg_dum RightUpLeg_dum
      Spine_dum Spine
      LeftUpLeg_dum LeftUpLeg
      RightUpLeg_dum RightUpLeg
      Spine Spine_dum1 Spine_dum2 Spine_dum3
      Spine_dum1 Head
      Spine_dum2 LeftShoulder
      Spine_dum3 RightShoulder
      LeftShoulder LeftArm
      LeftArm LeftForeArm
      LeftForeArm LeftHand
      LeftHand LeftHand_dum1 LeftHand_dum2
      LeftHand_dum1 LeftHandThumb1
      RightShoulder RightArm
      RightArm RightForeArm
      RightForeArm RightHand
      RightHand RightHand_dum1 RightHand_dum2
      RightHand_dum1 RightHandThumb1
      LeftUpLeg LeftLeg
      LeftLeg LeftFoot
      LeftFoot LeftToeBase
      RightUpLeg RightLeg
      RightLeg RightFoot
      RightFoot RightToeBase
   end

# File created by Blade
# Date/Time:  Wed Sep 24 19:10:19 2014
# Frame Rate: 120.000 fps
#------------------------------------------------------
:FULLY-SPECIFIED
:DEGREES
1
root -5.580031 32.881189 -1.876851 12.117389 4.081249 0.806277
Spine -13.005640 2.312256 1.898473
Head -6.924415 -3.818499 7.797995
LeftShoulder -15.252108 17.358247 26.625403
LeftArm 18.379451 -26.697778 -32.854333
LeftForeArm 5.434869 -0.000000 16.723474
LeftHand -23.774107 -0.000000 -0.285945
LeftHandThumb1 -26.253704 0.000000 33.147579
RightShoulder -21.182660 12.426302 -40.861223
RightArm -8.323847 1.360659 28.708860
RightForeArm -32.473898 -0.000000 18.082072
RightHand -12.119243 -0.000000 11.184179
RightHandThumb1 -24.326973 -0.000000 -32.862282
LeftUpLeg -7.222947 5.971546 -2.497930
LeftLeg -1.169542 -0.000000 0.000000
LeftFoot -8.976476 0.837698 -17.318830
LeftToeBase 7.619953 -0.000000 -0.000000
RightUpLeg -7.010897 -4.817570 1.605867
RightLeg 2.540457 -0.000000 -0.000000
RightFoot -10.230627 -9.533600 -4.597376
RightToeBase -0.248127 -0.000000 0.000000
2
root -5.582588 32.880163 -1.881187 12.113569 4.115935 0.796637
Spine -12.957156 2.307750 1.897274
Head -7.015233 -3.742820 7.809027
LeftShoulder -15.182806 17.344540 26.455490
LeftArm 18.099000 -27.624804 -33.302611
LeftForeArm 3.644048 -0.000000 17.759570
LeftHand -23.414373 0.000000 0.683966
LeftHandThumb1 -26.253704 0.000000 33.147579
RightShoulder -21.209223 12.325467 -40.709779
RightArm -8.422081 1.175370 28.966415
RightForeArm -32.594346 0.000000 18.591546
RightHand -12.107992 -0.000000 10.765009
RightHandThumb1 -24.326973 -0.000000 -32.862282
LeftUpLeg -7.236811 5.967646 -2.479900
LeftLeg -1.154131 -0.000000 0.000000
LeftFoot -8.947949 0.818004 -17.419104
LeftToeBase 7.453591 -0.000000 -0.000000
RightUpLeg -7.031570 -4.854276 1.631623
RightLeg 2.576136 -0.000000 -0.000000
RightFoot -10.244781 -9.552116 -4.625332
RightToeBase -0.242509 -0.000000 0.000000
3
root -5.582263 32.880717 -1.889800 12.150866 4.131354 0.801635
Spine -12.956632 2.322159 1.870839
Head -7.088025 -3.636146 7.810654
LeftShoulder -15.104528 17.263768 26.227725
LeftArm 17.815100 -28.474642 -33.625108
LeftForeArm 1.717872 -0.000000 18.721140
LeftHand -23.369969 -0.000000 1.635879
LeftHandThumb1 -26.253704 0.000000 33.147579
RightShoulder -21.238469 12.182713 -40.537048
RightArm -8.469684 1.066554 29.274984
RightForeArm -32.858688 -0.000000 19.111485
RightHand -12.160685 -0.000000 10.719964
RightHandThumb1 -24.326973 -0.000000 -32.862282
LeftUpLeg -7.299056 5.960293 -2.493367
LeftLeg -1.133535 -0.000000 0.000000
LeftFoot -8.939642 0.820776 -17.417436
LeftToeBase 7.472728 -0.000000 -0.000000
RightUpLeg -7.100379 -4.842839 1.632273
RightLeg 2.613916 -0.000000 -0.000000
RightFoot -10.257660 -9.590410 -4.605308
RightToeBase -0.221413 -0.000000 0.000000
4
root -5.584455 32.880131 -1.895411 12.167035 4.149645 0.802642
Spine -12.933911 2.333861 1.857724
Head -7.164353 -3.534546 7.780089
LeftShoulder -14.991766 17.154377 26.020954
LeftArm 17.471523 -29.598757 -34.099622
LeftForeArm -0.253507 -0.000000 19.802941
LeftHand -22.840326 -0.000000 2.088448
LeftHandThumb1 -26.253704 0.000000 33.147579
RightShoulder -21.265522 12.097067 -40.328446
RightArm -8.553206 0.714296 29.525036
RightForeArm -32.820186 -0.000000 19.621591
RightHand -11.999290 -0.000000 10.373686
RightHandThumb1 -24.326973 -0.000000 -32.862282
LeftUpLeg -7.329750 5.963937 -2.494294
LeftLeg -1.128484 -0.000000 0.000000
LeftFoot -8.938662 0.813045 -17.411020
LeftToeBase 7.511079 -0.000000 -0.000000
RightUpLeg -7.137735 -4.845386 1.638705
RightLeg 2.638719 -0.000000 -0.000000
RightFoot -10.264652 -9.608330 -4.605182
RightToeBase -0.258553 -0.000000 0.000000
5
root -5.586122 32.879666 -1.903166 12.195935 4.183797 0.798659
Spine -12.932317 2.328531 1.852896
Head -7.220755 -3.430359 7.793151
LeftShoulder -14.892172 17.078167 25.790255
LeftArm 17.223520 -30.858938 -34.708357
LeftForeArm -1.893885 -0.000000 20.882451
LeftHand -22.169270 -0.000000 2.735140
LeftHandThumb1 -26.253704 0.000000 33.147579
RightShoulder -21.287411 12.024293 -40.124212
RightArm -8.631807 0.411696 29.826297
RightForeArm -32.927999 -0.000000 20.147475
RightHand -11.906748 -0.000000 10.270704
RightHandThumb1 -24.326973 -0.000000 -32.862282
LeftUpLeg -7.379112 5.962039 -2.491990
LeftLeg -1.122089 -0.000000 0.000000
LeftFoot -8.940417 0.803207 -17.413591
LeftToeBase 7.471428 -0.000000 -0.000000
RightUpLeg -7.200007 -4.868718 1.660128
RightLeg 2.683303 -0.000000 -0.000000
RightFoot -10.284576 -9.650793 -4.632603
RightToeBase -0.195169 -0.000000 0.000000
6
root -5.588119 32.879819 -1.910203 12.209055 4.219493 0.791808
Spine -12.918726 2.335531 1.826522
Head -7.256478 -3.339437 7.874400
LeftShoulder -14.790634 16.997530 25.527348
LeftArm 17.031812 -31.995002 -35.213660
LeftForeArm -3.590788 -0.000000 21.858545
LeftHand -21.474210 -0.000000 2.557844
LeftHandThumb1 -26.253704 0.000000 33.147579
RightShoulder -21.306831 11.945650 -39.890860
RightArm -8.723592 0.107017 30.157016
RightForeArm -33.122638 -0.000000 20.690837
RightHand -12.028164 -0.000000 10.273664
RightHandThumb1 -24.326973 -0.000000 -32.862282
LeftUpLeg -7.413032 5.963616 -2.487294
LeftLeg -1.113516 -0.000000 0.000000
LeftFoot -8.976073 0.771395 -17.308338
LeftToeBase 7.654675 -0.000000 -0.000000
RightUpLeg -7.234340 -4.883619 1.678681
RightLeg 2.703198 -0.000000 -0.000000
RightFoot -10.277946 -9.673987 -4.648494
RightToeBase -0.202421 -0.000000 0.000000
7
root -5.595283 32.878628 -1.919514 12.238131 4.265098 0.763592
Spine -12.919010 2.339067 1.817277
Head -7.300097 -3.246949 7.957019
LeftShoulder -14.653426 16.857166 25.357122
LeftArm 16.787351 -33.084090 -35.864419
LeftForeArm -5.604662 -0.000000 22.960760
LeftHand -21.363545 -0.000000 3.654245
LeftHandThumb1 -26.253704 0.000000 33.147579
RightShoulder -21.295069 11.887972 -39.639364
RightArm -8.924606 -0.193705 30.495043
RightForeArm -33.446567 -0.000000 21.371490
RightHand -12.131365 0.000000 10.420233
RightHandThumb1 -24.326973 -0.000000 -32.862282
LeftUpLeg -7.473468 5.971084 -2.448534
LeftLeg -1.095657 -0.000000 0.000000
LeftFoot -8.939427 0.720817 -17.427878
LeftToeBase 7.498817 -0.000000 -0.000000
RightUpLeg -7.153367 -4.611908 1.684132
RightLeg 2.447524 -0.000000 -0.000000
RightFoot -10.145317 -9.873268 -4.487883
RightToeBase -0.216251 -0.000000 0.000000
